<svg width="189" height="49" viewBox="0 0 189 49" fill="none" xmlns="http://www.w3.org/2000/svg">
<rect width="189" height="49" rx="5" fill="#F9B66D"/>
<path d="M25.7875 17.7562H27.6062V25.6969C27.6062 27.0781 27.45 28.175 27.1375 28.9875C26.825 29.8 26.2594 30.4625 25.4406 30.975C24.6281 31.4812 23.5594 31.7344 22.2344 31.7344C20.9469 31.7344 19.8937 31.5125 19.075 31.0687C18.2562 30.625 17.6719 29.9844 17.3219 29.1469C16.9719 28.3031 16.7969 27.1531 16.7969 25.6969V17.7562H18.6156V25.6875C18.6156 26.8812 18.725 27.7625 18.9437 28.3312C19.1687 28.8937 19.55 29.3281 20.0875 29.6344C20.6312 29.9406 21.2937 30.0937 22.075 30.0937C23.4125 30.0937 24.3656 29.7906 24.9344 29.1844C25.5031 28.5781 25.7875 27.4125 25.7875 25.6875V17.7562ZM30.4281 35.3156V21.5437H31.9656V22.8375C32.3281 22.3312 32.7375 21.9531 33.1937 21.7031C33.65 21.4469 34.2031 21.3187 34.8531 21.3187C35.7031 21.3187 36.4531 21.5375 37.1031 21.975C37.7531 22.4125 38.2437 23.0312 38.575 23.8312C38.9062 24.625 39.0719 25.4969 39.0719 26.4469C39.0719 27.4656 38.8875 28.3844 38.5187 29.2031C38.1562 30.0156 37.625 30.6406 36.925 31.0781C36.2312 31.5094 35.5 31.725 34.7312 31.725C34.1687 31.725 33.6625 31.6063 33.2125 31.3687C32.7687 31.1312 32.4031 30.8312 32.1156 30.4687V35.3156H30.4281ZM31.9562 26.5781C31.9562 27.8594 32.2156 28.8062 32.7344 29.4187C33.2531 30.0312 33.8812 30.3375 34.6187 30.3375C35.3687 30.3375 36.0094 30.0219 36.5406 29.3906C37.0781 28.7531 37.3469 27.7687 37.3469 26.4375C37.3469 25.1687 37.0844 24.2187 36.5594 23.5875C36.0406 22.9562 35.4187 22.6406 34.6937 22.6406C33.975 22.6406 33.3375 22.9781 32.7812 23.6531C32.2312 24.3219 31.9562 25.2969 31.9562 26.5781ZM41.0781 31.5V17.7562H42.7656V31.5H41.0781ZM44.7625 26.5219C44.7625 24.6781 45.275 23.3125 46.3 22.425C47.1563 21.6875 48.2 21.3187 49.4313 21.3187C50.8 21.3187 51.9188 21.7687 52.7875 22.6687C53.6563 23.5625 54.0906 24.8 54.0906 26.3812C54.0906 27.6625 53.8969 28.6719 53.5094 29.4094C53.1281 30.1406 52.5688 30.7094 51.8313 31.1156C51.1 31.5219 50.3 31.725 49.4313 31.725C48.0375 31.725 46.9094 31.2781 46.0469 30.3844C45.1906 29.4906 44.7625 28.2031 44.7625 26.5219ZM46.4969 26.5219C46.4969 27.7969 46.775 28.7531 47.3313 29.3906C47.8875 30.0219 48.5875 30.3375 49.4313 30.3375C50.2688 30.3375 50.9656 30.0187 51.5219 29.3812C52.0781 28.7437 52.3563 27.7719 52.3563 26.4656C52.3563 25.2344 52.075 24.3031 51.5125 23.6719C50.9563 23.0344 50.2625 22.7156 49.4313 22.7156C48.5875 22.7156 47.8875 23.0312 47.3313 23.6625C46.775 24.2937 46.4969 25.2469 46.4969 26.5219ZM62.575 30.2719C61.95 30.8031 61.3469 31.1781 60.7656 31.3969C60.1906 31.6156 59.5719 31.725 58.9094 31.725C57.8156 31.725 56.975 31.4594 56.3875 30.9281C55.8 30.3906 55.5063 29.7062 55.5063 28.875C55.5063 28.3875 55.6156 27.9437 55.8344 27.5437C56.0594 27.1375 56.35 26.8125 56.7063 26.5687C57.0688 26.325 57.475 26.1406 57.925 26.0156C58.2563 25.9281 58.7563 25.8437 59.425 25.7625C60.7875 25.6 61.7906 25.4062 62.4344 25.1812C62.4406 24.95 62.4438 24.8031 62.4438 24.7406C62.4438 24.0531 62.2844 23.5687 61.9656 23.2875C61.5344 22.9062 60.8938 22.7156 60.0438 22.7156C59.25 22.7156 58.6625 22.8562 58.2813 23.1375C57.9063 23.4125 57.6281 23.9031 57.4469 24.6094L55.7969 24.3844C55.9469 23.6781 56.1938 23.1094 56.5375 22.6781C56.8813 22.2406 57.3781 21.9062 58.0281 21.675C58.6781 21.4375 59.4313 21.3187 60.2875 21.3187C61.1375 21.3187 61.8281 21.4187 62.3594 21.6187C62.8906 21.8187 63.2813 22.0719 63.5313 22.3781C63.7813 22.6781 63.9563 23.0594 64.0563 23.5219C64.1125 23.8094 64.1406 24.3281 64.1406 25.0781V27.3281C64.1406 28.8969 64.175 29.8906 64.2438 30.3094C64.3188 30.7219 64.4625 31.1187 64.675 31.5H62.9125C62.7375 31.15 62.625 30.7406 62.575 30.2719ZM62.4344 26.5031C61.8219 26.7531 60.9031 26.9656 59.6781 27.1406C58.9844 27.2406 58.4938 27.3531 58.2063 27.4781C57.9188 27.6031 57.6969 27.7875 57.5406 28.0312C57.3844 28.2687 57.3063 28.5344 57.3063 28.8281C57.3063 29.2781 57.475 29.6531 57.8125 29.9531C58.1563 30.2531 58.6563 30.4031 59.3125 30.4031C59.9625 30.4031 60.5406 30.2625 61.0469 29.9812C61.5531 29.6937 61.925 29.3031 62.1625 28.8094C62.3438 28.4281 62.4344 27.8656 62.4344 27.1219V26.5031ZM73.225 31.5V30.2437C72.5938 31.2312 71.6656 31.725 70.4406 31.725C69.6469 31.725 68.9156 31.5063 68.2469 31.0687C67.5844 30.6312 67.0688 30.0219 66.7 29.2406C66.3375 28.4531 66.1563 27.55 66.1563 26.5312C66.1563 25.5375 66.3219 24.6375 66.6531 23.8312C66.9844 23.0187 67.4813 22.3969 68.1438 21.9656C68.8063 21.5344 69.5469 21.3187 70.3656 21.3187C70.9656 21.3187 71.5 21.4469 71.9688 21.7031C72.4375 21.9531 72.8188 22.2812 73.1125 22.6875V17.7562H74.7906V31.5H73.225ZM67.8906 26.5312C67.8906 27.8062 68.1594 28.7594 68.6969 29.3906C69.2344 30.0219 69.8688 30.3375 70.6 30.3375C71.3375 30.3375 71.9625 30.0375 72.475 29.4375C72.9938 28.8312 73.2531 27.9094 73.2531 26.6719C73.2531 25.3094 72.9906 24.3094 72.4656 23.6719C71.9406 23.0344 71.2938 22.7156 70.525 22.7156C69.775 22.7156 69.1469 23.0219 68.6406 23.6344C68.1406 24.2469 67.8906 25.2125 67.8906 26.5312ZM83.2 31.5V22.8562H81.7094V21.5437H83.2V20.4844C83.2 19.8156 83.2594 19.3187 83.3781 18.9937C83.5406 18.5562 83.825 18.2031 84.2313 17.9344C84.6438 17.6594 85.2188 17.5219 85.9563 17.5219C86.4313 17.5219 86.9563 17.5781 87.5313 17.6906L87.2781 19.1625C86.9281 19.1 86.5969 19.0687 86.2844 19.0687C85.7719 19.0687 85.4094 19.1781 85.1969 19.3969C84.9844 19.6156 84.8781 20.025 84.8781 20.625V21.5437H86.8188V22.8562H84.8781V31.5H83.2ZM88.15 19.6969V17.7562H89.8375V19.6969H88.15ZM88.15 31.5V21.5437H89.8375V31.5H88.15ZM92.3781 31.5V17.7562H94.0656V31.5H92.3781ZM103.506 28.2937L105.25 28.5094C104.975 29.5281 104.466 30.3187 103.722 30.8812C102.978 31.4437 102.028 31.725 100.872 31.725C99.4156 31.725 98.2594 31.2781 97.4031 30.3844C96.5531 29.4844 96.1281 28.225 96.1281 26.6062C96.1281 24.9312 96.5594 23.6312 97.4219 22.7062C98.2844 21.7812 99.4031 21.3187 100.778 21.3187C102.109 21.3187 103.197 21.7719 104.041 22.6781C104.884 23.5844 105.306 24.8594 105.306 26.5031C105.306 26.6031 105.303 26.7531 105.297 26.9531H97.8719C97.9344 28.0469 98.2438 28.8844 98.8 29.4656C99.3563 30.0469 100.05 30.3375 100.881 30.3375C101.5 30.3375 102.028 30.175 102.466 29.85C102.903 29.525 103.25 29.0062 103.506 28.2937ZM97.9656 25.5656H103.525C103.45 24.7281 103.238 24.1 102.888 23.6812C102.35 23.0312 101.653 22.7062 100.797 22.7062C100.022 22.7062 99.3688 22.9656 98.8375 23.4844C98.3125 24.0031 98.0219 24.6969 97.9656 25.5656ZM106.703 28.5281L108.372 28.2656C108.466 28.9344 108.725 29.4469 109.15 29.8031C109.581 30.1594 110.181 30.3375 110.95 30.3375C111.725 30.3375 112.3 30.1812 112.675 29.8687C113.05 29.55 113.238 29.1781 113.238 28.7531C113.238 28.3719 113.072 28.0719 112.741 27.8531C112.509 27.7031 111.934 27.5125 111.016 27.2812C109.778 26.9687 108.919 26.7 108.438 26.475C107.963 26.2437 107.6 25.9281 107.35 25.5281C107.106 25.1219 106.984 24.675 106.984 24.1875C106.984 23.7437 107.084 23.3344 107.284 22.9594C107.491 22.5781 107.769 22.2625 108.119 22.0125C108.381 21.8187 108.738 21.6562 109.188 21.525C109.644 21.3875 110.131 21.3187 110.65 21.3187C111.431 21.3187 112.116 21.4312 112.703 21.6562C113.297 21.8812 113.734 22.1875 114.016 22.575C114.297 22.9562 114.491 23.4687 114.597 24.1125L112.947 24.3375C112.872 23.825 112.653 23.425 112.291 23.1375C111.934 22.85 111.428 22.7062 110.772 22.7062C109.997 22.7062 109.444 22.8344 109.113 23.0906C108.781 23.3469 108.616 23.6469 108.616 23.9906C108.616 24.2094 108.684 24.4062 108.822 24.5812C108.959 24.7625 109.175 24.9125 109.469 25.0312C109.638 25.0937 110.134 25.2375 110.959 25.4625C112.153 25.7812 112.984 26.0437 113.453 26.25C113.928 26.45 114.3 26.7437 114.569 27.1312C114.838 27.5187 114.972 28 114.972 28.575C114.972 29.1375 114.806 29.6687 114.475 30.1687C114.15 30.6625 113.678 31.0469 113.059 31.3219C112.441 31.5906 111.741 31.725 110.959 31.725C109.666 31.725 108.678 31.4562 107.997 30.9187C107.322 30.3812 106.891 29.5844 106.703 28.5281Z" fill="#232323"/>
<line x1="136.5" y1="11" x2="136.5" y2="38" stroke="#232323"/>
<g clip-path="url(#clip0_145_135)">
<path d="M157.5 21.7444L158.831 20.5137L165 26.2169L171.169 20.5137L172.5 21.7444L165 28.6784L157.5 21.7444Z" fill="#232323"/>
</g>
<defs>
<clipPath id="clip0_145_135">
<rect width="16.6415" height="18" fill="white" transform="translate(174 16.1797) rotate(90)"/>
</clipPath>
</defs>
</svg>
